<?xml version="1.0" encoding="UTF-8"?><svg id="Calque_2" xmlns="http://www.w3.org/2000/svg" viewBox="0 0 283.46 82.62"><g id="contenus"><path d="M.04,21.83h3.35c2.41,0,3.9,1.24,3.9,3.27,0,1.32-.64,2.3-1.75,2.83l3.44,4.85h-2.66l-2.91-4.43h-1.14v4.43H.04v-10.96ZM2.26,23.72v2.74h1.25c.94,0,1.49-.5,1.49-1.39,0-.83-.55-1.35-1.49-1.35h-1.25Z" style="fill:#000; stroke-width:0px;"/><path d="M10.36,21.83h6.39v1.89h-4.16v2.54h3.54v1.89h-3.54v2.74h4.16v1.89h-6.39v-10.96ZM12.52,20.89l1.77-2.11h2.29l-2.04,2.11h-2.02Z" style="fill:#000; stroke-width:0px;"/><path d="M19.33,21.83h3.62c2.41,0,3.88,1.24,3.88,3.27s-1.47,3.26-3.88,3.26h-1.39v4.43h-2.22v-10.96ZM21.55,23.72v2.74h1.49c.94,0,1.5-.5,1.5-1.39,0-.83-.56-1.35-1.5-1.35h-1.49Z" style="fill:#000; stroke-width:0px;"/><path d="M35.12,21.83h2.22v6.67c0,2.88-1.69,4.6-4.45,4.6s-4.43-1.72-4.43-4.6v-6.67h2.22v6.86c0,1.47.83,2.33,2.22,2.33s2.21-.86,2.21-2.33v-6.86Z" style="fill:#000; stroke-width:0px;"/><path d="M40.1,21.83h3.12c2.29,0,3.66,1.13,3.66,2.97,0,.88-.41,1.64-1.16,2.16,1.16.52,1.8,1.46,1.8,2.6,0,2-1.55,3.22-4.07,3.22h-3.35v-10.96ZM42.32,23.72v2.4h.94c.85,0,1.33-.42,1.33-1.21,0-.74-.49-1.19-1.33-1.19h-.94ZM42.32,28.03v2.86h1.25c1.03,0,1.66-.55,1.66-1.46s-.63-1.41-1.66-1.41h-1.25Z" style="fill:#000; stroke-width:0px;"/><path d="M49.79,21.83h2.22v8.94h4.16v2.02h-6.39v-10.96Z" style="fill:#000; stroke-width:0px;"/><path d="M58.14,21.83h2.22v10.96h-2.22v-10.96Z" style="fill:#000; stroke-width:0px;"/><path d="M74.92,33.55c.23,0,.55-.03.78-.13v1.88c-.36.14-.67.2-1.16.2-1.22,0-2.35-.5-3.43-1.44l-1.3-1.16c-.47.13-.97.19-1.5.19-3.46,0-5.82-2.66-5.82-5.79s2.36-5.79,5.82-5.79,5.81,2.66,5.81,5.79c0,1.83-.81,3.51-2.16,4.57l.66.63c.85.77,1.6,1.05,2.3,1.05ZM71.83,27.31c0-2.1-1.47-3.71-3.52-3.71s-3.54,1.61-3.54,3.71,1.47,3.71,3.54,3.71,3.52-1.61,3.52-3.71Z" style="fill:#000; stroke-width:0px;"/><path d="M82.71,21.83h2.22v6.67c0,2.88-1.69,4.6-4.45,4.6s-4.43-1.72-4.43-4.6v-6.67h2.22v6.86c0,1.47.83,2.33,2.22,2.33s2.21-.86,2.21-2.33v-6.86Z" style="fill:#000; stroke-width:0px;"/><path d="M87.69,21.83h6.39v1.89h-4.16v2.54h3.54v1.89h-3.54v2.74h4.16v1.89h-6.39v-10.96Z" style="fill:#000; stroke-width:0px;"/><path d="M.04,37.63h6.39v1.89H2.26v2.54h3.54v1.89h-3.54v4.63H.04v-10.96Z" style="fill:#000; stroke-width:0px;"/><path d="M8.38,37.63h3.35c2.41,0,3.9,1.24,3.9,3.27,0,1.32-.64,2.3-1.75,2.83l3.44,4.85h-2.66l-2.91-4.43h-1.14v4.43h-2.22v-10.96ZM10.61,39.52v2.74h1.25c.94,0,1.49-.5,1.49-1.39,0-.83-.55-1.35-1.49-1.35h-1.25Z" style="fill:#000; stroke-width:0px;"/><path d="M21.94,37.63h2.91l4.15,10.96h-2.36l-1.05-2.85h-4.38l-1.05,2.85h-2.36l4.15-10.96ZM24.9,43.84l-1.5-4.12-1.5,4.12h3.01Z" style="fill:#000; stroke-width:0px;"/><path d="M30.69,37.63h2.85l4.9,7.84v-7.84h2.22v10.96h-2.85l-4.9-7.87v7.87h-2.22v-10.96Z" style="fill:#000; stroke-width:0px;"/><path d="M51.48,45.31l1.75,1.35c-.85,1.16-2.16,1.97-3.76,2.18l-1.36,2.27h-1.97l1.38-2.3c-2.85-.5-4.73-2.91-4.73-5.7,0-3.13,2.36-5.79,5.82-5.79,1.99,0,3.62.89,4.62,2.22l-1.75,1.36c-.63-.89-1.61-1.5-2.86-1.5-2.07,0-3.54,1.61-3.54,3.71s1.47,3.71,3.54,3.71c1.25,0,2.24-.61,2.86-1.5Z" style="fill:#000; stroke-width:0px;"/><path d="M57.85,37.63h2.91l4.15,10.96h-2.36l-1.05-2.85h-4.38l-1.05,2.85h-2.36l4.15-10.96ZM60.81,43.84l-1.5-4.12-1.5,4.12h3.01Z" style="fill:#000; stroke-width:0px;"/><path d="M66.61,37.63h2.22v10.96h-2.22v-10.96Z" style="fill:#000; stroke-width:0px;"/><path d="M72.52,45.58c.66.85,1.53,1.35,2.43,1.35s1.41-.47,1.41-1.27c0-1.96-5.01-1.52-5.01-5.17,0-1.74,1.42-3.18,3.51-3.18,1.64,0,2.91.74,3.84,1.85l-1.63,1.46c-.64-.83-1.36-1.36-2.19-1.36-.77,0-1.27.5-1.27,1.14,0,1.96,5.01,1.5,5.01,5.21-.03,2.04-1.63,3.29-3.63,3.29-1.85,0-3.1-.67-4.07-1.83l1.61-1.49Z" style="fill:#000; stroke-width:0px;"/><path d="M80.95,37.63h6.39v1.89h-4.16v2.54h3.54v1.89h-3.54v2.74h4.16v1.89h-6.39v-10.96Z" style="fill:#000; stroke-width:0px;"/><path d="M35.7,78.85c.3,0,.55.22.42.8l-1.38.32c.24-.64.64-1.12.96-1.12M36.46,81.07h-.27c-.35.41-.72.73-1.08.73s-.57-.22-.57-.73c0-.21.02-.42.06-.61l2.23-.73c.43-1.03-.09-1.48-.7-1.48-1.05,0-2.25,1.76-2.25,3.3,0,.69.33,1.07.84,1.07.6,0,1.23-.59,1.74-1.55M36.02,77.84l1.57-1.46v-.17h-.84l-.96,1.63h.24ZM31.21,78.87h.74l-1.17,3.21c-.1.27.04.55.32.55.67,0,1.74-.66,2.12-1.56h-.21c-.3.31-.87.73-1.36.82l1.08-3.01h1.1l.14-.46h-1.07l.41-1.16h-.43l-.76,1.16-.91.13v.33ZM30.22,78.72c.09-.3-.11-.47-.27-.47-.64,0-1.41.58-1.71,1.39h.21c.21-.3.56-.63.89-.68l-1.23,3.2c-.11.3.11.47.27.47.61,0,1.33-.59,1.63-1.39h-.21c-.21.3-.56.63-.89.68l1.31-3.2ZM30.44,77.11c.29,0,.53-.23.53-.53s-.24-.53-.53-.53-.53.24-.53.53.23.53.53.53M23.36,82.03c-.16.36,0,.59.36.59.22,0,.31-.06.4-.29l.85-2.26c.39-.48,1.21-1,1.53-1,.23,0,.2.19.05.48l-1.31,2.51c-.13.25.04.55.32.55.64,0,1.41-.58,1.71-1.39h-.21c-.21.3-.56.63-.89.68l1.12-2.27c.14-.29.22-.56.22-.78,0-.37-.21-.61-.59-.61-.55,0-1.12.63-1.78,1.4v-.59c0-.43-.14-.8-.52-.8-.24,0-.47.21-.69.51v.08c.42-.02.6.6.31,1.26l-.87,1.93ZM23.35,79.23c.15-.52.07-.98-.33-.98-.47,0-.59.36-1.08,1.4v-.59c0-.43-.14-.8-.52-.8-.45,0-.86.7-1.17,1.39h.21c.22-.31.42-.5.58-.5.19,0,.3.3,0,.96l-.87,1.93c-.16.36,0,.59.36.59.22,0,.31-.06.4-.29l.85-2.26c.24-.3.46-.55.73-.84h.84ZM18.41,78.85c.3,0,.55.22.42.8l-1.38.32c.24-.64.64-1.12.96-1.12M19.18,81.07h-.27c-.35.41-.72.73-1.08.73s-.57-.22-.57-.73c0-.21.02-.42.06-.61l2.23-.73c.43-1.03-.09-1.48-.7-1.48-1.05,0-2.25,1.76-2.25,3.3,0,.69.33,1.07.84,1.07.6,0,1.23-.59,1.74-1.55M13.93,78.87h.74l-1.17,3.21c-.1.27.04.55.32.55.67,0,1.74-.66,2.12-1.56h-.21c-.3.31-.87.73-1.36.82l1.08-3.01h1.1l.14-.46h-1.07l.41-1.16h-.43l-.76,1.16-.91.13v.33ZM9.87,81.37c0-.99,1.1-2.33,1.72-2.33.14,0,.27.02.38.05l-.64,1.71c-.37.45-.94,1-1.21,1-.15,0-.25-.13-.25-.43M13.26,78.07l-.34-.02-.38.37h-.08c-1.83,0-3.41,2.06-3.41,3.55,0,.42.26.66.66.66.47,0,.94-.67,1.46-1.4l-.02.26c-.06.74.16,1.14.55,1.14.45,0,.86-.7,1.17-1.39h-.21c-.22.31-.42.5-.58.5-.17,0-.29-.31,0-.96l1.18-2.71ZM9.35,79.23c.15-.52.07-.98-.33-.98-.47,0-.59.36-1.08,1.4v-.59c0-.43-.14-.8-.52-.8-.45,0-.86.7-1.17,1.39h.21c.22-.31.42-.5.58-.5.19,0,.3.3,0,.96l-.87,1.93c-.16.36,0,.59.36.59.22,0,.31-.06.4-.29l.85-2.26c.24-.3.46-.55.73-.84h.84ZM3.2,82.46l.08-.25c-1.07-.2-1.21-.2-.78-1.37l.43-1.2h1.18c.53,0,.54.22.46.8h.31l.71-1.94h-.31c-.27.46-.47.8-1.05.8h-1.17l.62-1.7c.19-.54.31-.65,1.03-.65h.51c.75,0,.84.2.84.96h.3l.25-1.32H2.17l-.08.25c.86.18.94.26.54,1.37l-.96,2.64c-.4,1.1-.57,1.19-1.56,1.37l-.07.25h3.17Z" style="fill:#000; stroke-width:0px;"/><path d="M24.94,68.8c.3,0,.55.22.42.8l-1.38.32c.24-.64.64-1.12.96-1.12M25.7,71.03h-.27c-.35.41-.72.73-1.08.73s-.57-.22-.57-.73c0-.21.02-.42.06-.61l2.23-.73c.43-1.03-.09-1.48-.7-1.48-1.05,0-2.25,1.76-2.25,3.3,0,.69.33,1.07.84,1.07.6,0,1.23-.59,1.74-1.55M25.26,67.8l1.57-1.46v-.17h-.84l-.96,1.63h.24ZM20.46,68.83h.74l-1.17,3.21c-.1.27.04.55.32.55.67,0,1.74-.66,2.12-1.56h-.21c-.3.31-.87.73-1.36.82l1.08-3.01h1.1l.14-.46h-1.07l.41-1.16h-.43l-.76,1.16-.91.13v.33ZM19.46,68.67c.09-.3-.11-.47-.27-.47-.64,0-1.41.58-1.71,1.39h.21c.21-.3.56-.63.89-.68l-1.23,3.2c-.11.3.11.47.27.47.61,0,1.33-.59,1.63-1.39h-.21c-.21.3-.56.63-.89.68l1.31-3.2ZM19.68,67.07c.29,0,.53-.23.53-.53s-.24-.53-.53-.53-.53.24-.53.53.23.53.53.53M15.41,71.87l2.24-5.87-.07-.09-1.41.16v.17l.27.21c.25.19.17.38-.06.97l-1.75,4.61c-.13.25.04.55.32.55.64,0,1.33-.58,1.63-1.39h-.21c-.21.3-.64.63-.97.68M11.15,71.32c0-.99,1.1-2.33,1.72-2.33.14,0,.27.02.38.05l-.64,1.71c-.37.45-.94,1-1.21,1-.15,0-.25-.13-.25-.43M14.53,68.02l-.34-.02-.38.37h-.08c-1.83,0-3.41,2.06-3.41,3.55,0,.42.26.66.66.66.47,0,.94-.67,1.46-1.4l-.02.26c-.06.74.16,1.14.55,1.14.45,0,.86-.7,1.17-1.39h-.21c-.22.31-.42.5-.58.5-.17,0-.29-.31,0-.96l1.18-2.71ZM6.35,73.36c0-.43.41-.69,1-.92.19.1.48.2.87.33.61.2.84.28.84.47,0,.39-.67.69-1.57.69-.76,0-1.13-.16-1.13-.56M8.02,70.76c-.27,0-.37-.22-.37-.48,0-.72.39-1.77.99-1.77.27,0,.37.22.37.48,0,.72-.39,1.77-.99,1.77M9.76,72.96c0-.51-.46-.7-1.21-.92-.64-.19-.93-.25-.93-.46,0-.17.14-.37.41-.51,1.05-.06,1.74-1,1.74-1.8,0-.17-.03-.31-.09-.44h.89l.14-.46h-1.41c-.17-.1-.37-.16-.57-.16-1.12,0-1.84.98-1.84,1.78,0,.6.39.98.85,1.07-.52.23-.81.51-.81.83,0,.18.06.31.22.43-1.21.35-1.68.76-1.68,1.33s.73.79,1.6.79c1.47,0,2.7-.8,2.7-1.46M4.15,69.53c.53,0,.54.22.46.8h.31l.71-1.94h-.31c-.27.46-.47.8-1.05.8h-1.17l.59-1.61c.19-.54.31-.64,1.03-.64h.51c.75,0,.84.2.84.95h.3l.25-1.32H2.17l-.08.25c.86.18.94.26.54,1.37l-.96,2.64c-.4,1.1-.57,1.19-1.56,1.37l-.07.25h4.93l.88-1.4h-.34c-.56.53-1.27,1.04-2.26,1.04-1.31,0-1.19-.06-.76-1.25l.47-1.28h1.18ZM4.79,66.16l1.57-1.08v-.17h-.95l-.87,1.25h.25Z" style="fill:#000; stroke-width:0px;"/><path d="M24.42,58.76c.3,0,.55.22.42.8l-1.38.32c.24-.64.64-1.12.96-1.12M25.18,60.98h-.27c-.35.41-.72.73-1.08.73s-.57-.22-.57-.73c0-.21.02-.42.06-.61l2.23-.73c.43-1.03-.09-1.48-.7-1.48-1.05,0-2.25,1.76-2.25,3.3,0,.69.33,1.07.84,1.07.6,0,1.23-.59,1.74-1.55M24.74,57.75l1.57-1.46v-.17h-.84l-.96,1.63h.24ZM20.13,58.78h.59l-1.17,3.21c-.1.27.04.55.32.55.67,0,1.74-.66,2.12-1.56h-.21c-.3.31-.87.73-1.36.82l1.08-3.01h1.1l.14-.46h-1.07l.41-1.16h-.43l-.76,1.16-.76.13v.33ZM19.56,59.14c.15-.52.07-.98-.33-.98-.47,0-.59.36-1.08,1.4v-.59c0-.43-.14-.8-.52-.8-.45,0-.86.7-1.17,1.39h.21c.22-.31.42-.5.58-.5.19,0,.3.3,0,.96l-.87,1.93c-.16.36,0,.59.36.59.22,0,.31-.06.4-.29l.85-2.26c.24-.3.46-.55.73-.84h.84ZM14.62,58.76c.3,0,.55.22.42.8l-1.38.32c.24-.64.64-1.12.96-1.12M15.39,60.98h-.27c-.35.41-.72.73-1.08.73s-.57-.22-.57-.73c0-.21.02-.42.06-.61l2.23-.73c.43-1.03-.09-1.48-.7-1.48-1.05,0-2.25,1.76-2.25,3.3,0,.69.33,1.07.84,1.07.6,0,1.23-.59,1.74-1.55M9.93,61.88c-.22,0-.53-.2-.53-.38,0-.06.1-.31.22-.62l.36-.96c.39-.46.97-.95,1.3-.95.2,0,.35.13.35.43,0,.88-.82,2.47-1.7,2.47M12.46,59.06c0-.65-.24-.89-.69-.89-.56,0-1.09.59-1.62,1.32l1.34-3.53-.07-.09-1.41.16v.17l.27.21c.25.19.17.39-.06.97l-1.45,3.73c-.1.27-.23.59-.23.68,0,.39.52.75,1,.75,1.09,0,2.92-1.97,2.92-3.48M8.09,58.63c.09-.3-.11-.47-.27-.47-.64,0-1.41.58-1.71,1.39h.21c.21-.3.56-.63.89-.68l-1.23,3.2c-.11.3.11.47.27.47.61,0,1.33-.59,1.63-1.39h-.21c-.21.3-.56.63-.89.68l1.31-3.2ZM8.32,57.02c.29,0,.53-.23.53-.53s-.24-.53-.53-.53-.53.24-.53.53.23.53.53.53M5.08,56.51h-2.92l-.08.25c.86.18.94.26.54,1.37l-.95,2.64c-.4,1.1-.57,1.19-1.56,1.37l-.07.25h4.45l.96-1.72h-.34c-.55.6-1.19,1.36-2.18,1.36-.75,0-.84-.13-.43-1.25l.95-2.64c.39-1.1.57-1.19,1.56-1.37l.07-.25Z" style="fill:#000; stroke-width:0px;"/><path d="M16.54,12.84c.16-.16.31-.32.47-.49h0c.29-.33.58-.65.92-.94.1-.09.2-.17.3-.24.03-.03.03-.08.06-.11-.14.06-.22.16-.36.22-.03,0-.05-.03-.03-.06.1-.07.2-.15.29-.22,0,0-.01,0-.02,0-.03,0-.03-.03-.03-.05-.36-.06-.63.19-.88.41-.06.03-.11-.03-.14-.03-.41.14-.71.49-1.13.66v-.06c-.16.06-.33.15-.49.19-.25.05-.47.03-.69.03-.33.03-.67.11-1,.18,0,0-.02,0-.03,0-.18.05-.35.12-.51.21,0,0-.01,0-.02.01-.01.02-.03.03-.04.05-.06.06-.11.12-.19.16-.17.09-.31.24-.46.36-.01,0-.03.01-.04.01-.15.14-.29.28-.44.42-.01,0-.05.02-.08.01,0,0,0,0,0,0,0,0,.01-.02.02-.03.02-.04.05-.08.07-.12.03-.04.05-.09.08-.13.04-.06.08-.11.12-.17.01-.01,0-.03,0-.04,0,0-.02-.01-.04-.01.14-.13.3-.25.46-.34,0,0,0,0,0,0-.02,0-.04,0-.03-.03.02-.02.03-.05.05-.07,0,0,0-.02,0-.02,0,0-.01-.01-.02-.02-.04.03-.09.06-.13.09-.07.06-.12.18-.22.18,0,0-.03,0-.04,0-.01,0-.02,0-.03,0,0,0,0,0,0,0,0,0,0,0,0,0,0,0,0,0,0,0,0,0,0-.02.01-.02,0,0,0-.02.01-.02,0,0,0-.01.01-.02,0-.01.01-.02.02-.03,0,0,0-.02.01-.02.01-.02.02-.04.04-.06,0,0,.01-.02.02-.03,0-.02.02-.03.03-.05.01-.02,0-.04-.02-.05.05-.07.11-.12.19-.16h0c.11-.05.21-.12.32-.18.02-.01.03-.03.05-.04-.16.05-.3.12-.44.22,0,0-.04.01-.05.03,0,0-.03.01-.07-.03,0,0,0-.01,0-.02.03-.05.11-.08.16-.14.03,0,.05,0,.05.03.88-.69,2.09-.52,3.11-.88.08-.05.16-.11.25-.16.14-.05.25-.19.41-.27.22-.16.38-.36.47-.63,0-.03-.03-.06-.03-.06-.36.38-.77.69-1.21.91-.58.3-1.21.25-1.81.33.03-.05.08-.05.14-.05,0-.08.06-.11.11-.17h.08s.03-.05.05-.05c.05,0,.14-.03.11-.03-.08-.11-.25.08-.39,0,.06-.06.03-.14.08-.16h.11c0-.06.06-.11.06-.11.41-.25.8-.44,1.18-.66-.08,0-.14.08-.22.03.06,0,0-.08.06-.08.3-.08.55-.25.85-.36-.11,0-.19.08-.3,0,.05-.03.08-.08.16-.08v-.08s.03-.03.06-.03c-.03,0-.06-.03-.06-.03.03-.05.11-.03.16-.08-.03,0-.08,0-.08-.03.08-.11.22-.14.36-.16-.03-.05-.11,0-.11-.05,0-.03.03-.03.06-.03h-.06c-.05-.03-.03-.08-.03-.11.16-.19.16-.44.25-.66-.03,0-.05,0-.05-.03-.27.3-.71.41-1.13.52h-.14c-.14.05-.33.05-.47-.03-.11-.06-.16-.14-.27-.22-.22-.14-.44-.25-.69-.33-.69-.22-1.4-.33-2.12-.3.3-.16.64-.18.96-.27.47-.14.91-.3,1.4-.27-.08-.03-.19,0-.27,0-.38-.03-.77.08-1.18.16-.27.06-.52.16-.8.22-.16.05-.25.22-.44.19v-.08c.27-.33.6-.66,1.04-.69.49-.08.96,0,1.46.05.36.03.69.11,1.04.19.14,0,.16.22.28.25.16.06.33,0,.49.11,0-.05-.03-.11,0-.16.11-.11.25.03.36-.03.22-.14-.19-.38-.3-.58,0-.03.03-.06.03-.06.22.19.39.41.66.55.14.05.47.14.41-.03-.14-.3-.41-.55-.63-.82v-.11c-.05,0-.05-.03-.08-.05v-.11c-.11-.06-.08-.17-.14-.25-.08-.14-.03-.33-.08-.49s-.08-.3-.11-.47c-.08-.47-.19-.88-.25-1.32-.05-.52.3-.93.55-1.4.19-.33.41-.66.77-.88.08-.33.3-.6.52-.88.22-.27.58-.43.85-.55.38-.17.73-.28.73-.28H0v14.55h13.36c.52-.38,1.05-.56,1.78-.92.34-.17,1.13-.53,1.4-.8ZM12.31,10.87c-.06,0-.16.03-.14-.03.03-.14.22-.14.33-.19.06-.03.14-.08.19-.05.06.08.14.05.19.11-.16.16-.39.08-.58.16ZM8.11,10.26s-.03-.03-.03-.06c.36-.47.63-.91.88-1.4.36-.19.65-.47.93-.77.47-.49.96-.93,1.54-1.21.22-.08.49-.05.71.03-.08.11-.22.08-.33.16-.03,0-.06,0-.08-.03.03-.03.03-.06.03-.08-.27.3-.66.44-.88.8-.16.27-.27.63-.63.71-.11.03.03-.08-.03-.05-.85.52-1.46,1.15-2.12,1.9ZM10.39,8.45c-.03.06-.06.06-.08.11-.03.06-.05.08-.11.11-.03,0-.06,0-.06-.03.03-.11.11-.22.22-.25.03,0,.03.03.03.05ZM11.67,12.57s-.04.06-.07.08c.03,0,.06.02.04.04-.06.06-.12.12-.21.15,0,0-.02,0-.04,0-.03.03-.07.07-.1.1-.03.03-.18,0-.14-.03.07-.06.13-.13.2-.19.04-.04.08-.07.11-.11.02-.02.03-.04.06-.06.02-.02.17-.03.15.03ZM11.17,12.34s0,0,0,0c-.1.07-.21.15-.31.21-.12.07-.24.12-.36.18,0,0,0,0,0,0,0-.01-.03-.02-.05-.01-.1.06-.19.13-.28.21-.01.01-.03.02-.04.04,0,0,0,0,0,0,0,0,0,0,0,0-.01.01-.03.03-.04.04,0,0,0,0,0,0,0,0,0,0,0,0-.02.02-.04.04-.06.06-.01.02-.02.03-.04.04-.02.01-.06.01-.06-.02,0,0,0,0,0,0-.02,0-.03.02-.05.03-.02,0-.03.02-.04.02,0,0-.01,0-.02,0,0,0-.01,0-.02,0-.03.03-.07.05-.1.08-.06.05-.11.11-.16.17,0,0,0,0,0,0,0,0,0,0,0,0,0,0,0,0,0,.01,0,0,0,0,0,.01,0,0,0,0,0,0,0,0-.01.02-.02.03,0,0,0,0,0,0,0,0-.01,0-.02.01,0,0,0-.01-.01-.02,0,0,0,0,0-.01,0-.01-.02-.03-.02-.04,0,0,0,0,0,0,0,0,0,0,0-.01.03-.03.06-.07.09-.1,0,0,0,0,0,0,0-.01.02-.02.03-.04.02-.02.03-.04.05-.06,0,0,.01-.01.02-.02.03-.04.06-.08.09-.12,0,0,0,0,0,0,0,0,0-.01.01-.02.01-.02.03-.04.04-.06.01-.02.02-.04.03-.05,0,0,0,0,0,0,0,0,0,0,0,0,0,0,0,0,0-.01,0-.02.02-.04.03-.06,0,0,0,0,0,0,0,0,0-.01,0-.02,0,0,0-.02,0-.03h0s0,0,0,0c0-.01,0-.03,0-.04,0,0,0-.01,0-.02.03-.05.07-.1.11-.15,0,0,0,0-.01,0-.04.03-.07.06-.1.09-.03.02-.09-.01-.05-.04.02-.02.04-.04.06-.06,0,0,0,0,0,0,.05-.04.09-.1.14-.14.03-.02.06-.04.08-.06,0,0,0,0,.01-.01.02-.03.04-.05.06-.07,0,0,0,0,0,0,.26-.25.71-.24,1.05-.4.14-.06.3.03.44,0,.08,0,.16,0,.25.05-.25.13-.48.29-.7.43ZM11.74,10.43s.08,0,.11-.05h-.22s-.03-.03-.03-.06c-.14.03-.3.08-.44.11-.19.05-.36.19-.58.25-.3.11-.55.36-.88.47-.03,0-.03-.03-.03-.06.03-.08.14-.11.19-.19,0-.03,0-.05-.03-.05.22-.3.52-.47.8-.71v-.08c.08-.11.22-.16.27-.3.03-.08.14-.19.27-.25-.03-.03-.08-.03-.08-.08-.11,0-.22.05-.33-.03.05-.05.11-.08.17-.1-.02,0-.05-.02-.06-.04-.03-.05.05-.12.14-.14.11-.03.25-.03.33-.11-.19-.03-.41.06-.6-.05.14-.36.36-.66.69-.82.03,0,.08,0,.08.03,0,.14-.08.25-.22.27.22.06.44.06.66.16-.03.06-.08.03-.11.03.14.08.3.03.44.14-.08.08-.16,0-.25,0,.85.25,1.76.44,2.47.99-.6.3-1.24.44-1.9.58-.08,0-.14,0-.22-.03,0,.03,0,.08-.03.08-.11,0-.19,0-.27.05-.11.05-.28.08-.36,0Z" style="fill:#000091; stroke-width:0px;"/><path d="M40.02,0h-15.65s.03,0,.15.07c.13.07.29.16.39.21.2.11.4.24.52.44.06.08.14.25.08.36-.06.14-.08.36-.22.41-.16.08-.39.08-.58.05-.11,0-.22-.03-.33-.05.41.16.8.36,1.07.74.03.05.14.08.25.08.03,0,.03.05.03.08-.06.06-.11.08-.08.16h.08c.14-.05.11-.33.3-.25.14.08.19.27.11.41-.11.11-.22.19-.33.27-.03.06-.03.14,0,.19.08.11.11.22.14.33.08.19.11.41.19.6.11.41.22.82.19,1.24,0,.22-.11.41-.03.63.06.22.19.38.3.58.11.16.22.27.3.44.16.27.47.55.33.88-.08.19-.38.16-.58.27-.16.14-.03.36.05.49.14.25-.16.41-.36.49.05.08.16.06.19.11.03.14.16.22.08.36-.11.16-.44.25-.27.49.11.19.04.41-.03.6-.08.25-.3.36-.49.41-.16.05-.36.05-.52.03-.05-.03-.11-.05-.16-.05-.47-.06-.93-.19-1.4-.19-.14.03-.27.06-.38.11-.12.09-.23.19-.33.29,0,0,0,0,0,0-.02.02-.04.04-.06.07-.01.01-.02.03-.04.04,0,0-.02.02-.02.03-.08.1-.15.21-.22.32,0,0,0,.01-.01.02,0,.01-.01.03-.02.04-.09.17-.16.34-.21.5-.19.63-.11,1.17.03,1.3.04.04.91.31,1.51.58.28.13.48.22.65.33h15.37V0Z" style="fill:#e1000f; stroke-width:0px;"/><path d="M25.29,5.31c.11.03.27.03.27.08-.05.22-.39.27-.55.5h-.08c-.08.05-.05.19-.14.19-.08-.03-.17,0-.25.03.11.11.25.19.41.16.03,0,.08.06.08.11,0,0,.03,0,.06-.03.03,0,.06,0,.06.03v.11c-.08.11-.22.05-.33.08.22.05.44.05.63,0,.17-.05,0-.33.11-.47-.05,0,0-.08-.05-.08.05-.05.11-.14.16-.16.06,0,.14-.03.16-.08,0-.05-.11-.08-.08-.14.16-.11.3-.27.25-.44-.03-.08-.25-.08-.39-.14-.14-.05-.3,0-.47.03-.14,0-.28.08-.41.11-.19.05-.36.16-.52.27.19-.08.39-.11.6-.16.17,0,.31-.04.47,0Z" style="fill:#9d9d9c; stroke-width:0px;"/><path d="M155.24,10.82c2.19-1.32,4.45-3.09,6.47-5.14,1.58-1.61-5.38-.89-7.06.54-1.8,1.54-3.66,3.24-5.35,5.23-.99,1.16,3.77.68,5.94-.63ZM282.67,46.97c1.24.74,1.18-3.13-1.31-4.68-8.93-5.56-33.35,4.13-42.61,5.24-1.74.21-2.37-.23-1.96-1.41.79-2.27,3.88-6.45,4.5-7.89.59-1.37.51-6.09-6.48-6.09-5.71,0-10.94,2.65-14.62,5.99-3.51,2.99-10.3,8.91-14.48,8.91s8.35-13.08,9.05-13.74c1.88-1.77-4.06-1.33-6.55.57-1,.76-4.98,5.02-7.47,9.15-7.21,4.98-14.39,6.14-10.97,2,1.82-2.21,4.89-5.16,7-7.51,2.95-3.27,2.42-5.42-4.1-5.42-8.72,0-9.64.76-14.56,6.52-.91,1.07-.44,3.75.5,2.82,5.9-5.84,5.77-5.36,13.58-5.36-1.26,1.33-3.49,2.66-7.29,7.48-3.38,4.3-1.17,7.77,3.63,7.77,2.66,0,6.62-1.25,10.25-3.8-.43,2.24.47,3.84,3.89,3.84,3.96,0,8.49-2.36,12.24-4.98-.47,2.84.99,4.98,5.19,4.98,3.23,0,6.99-1.27,10.87-4.63-.02,2.57,1.79,4.61,5.17,4.61,8.23,0,36.65-10.32,46.53-4.36ZM222.32,47.64c-5.4,0,5.41-12.33,12.45-12.33,4.21,0-7.24,12.33-12.45,12.33ZM218.03,28.58c2.19-1.32,6.31-4.52,8.34-6.57,1.58-1.61-5.39-.89-7.06.54-1.81,1.54-4.81,4.31-6.5,6.3-.99,1.16,3.05,1.04,5.23-.26ZM175.44,41.71c-2.11,2.06-6.74,5.52-10.78,5.52-2.99,0,2.97-5.36,5.92-9.68,2.82-4.13.51-5.36-1.81-5.36-5.76,0-11.38,4.04-15.19,6.88,1.15-1.54,2.94-3.52,4.86-6.04,1.06-1.4-5.29-.9-6.91,1.24-.52.68-1.09,1.44-1.7,2.25-5.51,6.62-13.83,11.09-17.91,11.09-2.28,0-3.1-1.57-1.69-4.53,3.41-7.14,15.18-20.72,21.58-26.66,2.9-2.72-5.82-1.61-7.82.4-8.86,8.92-17.78,18.87-20.3,26.61-1.39,4.28-.11,8.13,5.21,8.13,4.37,0,9.21-2.16,13.32-4.73-1.01,1.38-1.93,2.63-2.68,3.64-1.16,1.57,4.72,1,5.96-.59,4.65-5.95,15.82-13.27,18.93-13.27,2.83,0-6.92,7.31-6.83,11.78.11,5.87,13.72,2.28,18.34-3.77.72-.94.16-3.54-.49-2.91Z" style="fill:#e1000f; stroke-width:0px;"/></g></svg>